<svg xmlns="http://www.w3.org/2000/svg" xmlns:xlink="http://www.w3.org/1999/xlink" viewBox="15 150 345 70" preserveAspectRatio="xMidYMid meet" style="background: transparent;"><defs><g/></defs><g fill="#000000" fill-opacity="1"><g transform="translate(17.821044, 217.715405)"><g><path d="M 35.25 0 L 7.40625 0 L 7.40625 -66.375 L 83.671875 -66.375 L 83.671875 -49.953125 L 35.25 -49.953125 L 35.25 -39.546875 L 76.1875 -39.546875 L 76.1875 -26.78125 L 35.25 -26.78125 Z M 35.25 0 "/></g></g></g><g fill="#000000" fill-opacity="1"><g transform="translate(97.810778, 217.715405)"><g><path d="M 84.875 0 L 7.40625 0 L 7.40625 -66.375 L 35.25 -66.375 L 35.25 -16.421875 L 84.875 -16.421875 Z M 84.875 0 "/></g></g></g><g fill="#000000" fill-opacity="1"><g transform="translate(177.152913, 217.715405)"><g><path d="M 87.328125 0 L 7.40625 0 L 7.40625 -66.375 L 83.671875 -66.375 L 83.671875 -49.953125 L 35.25 -49.953125 L 35.25 -39.546875 L 76.1875 -39.546875 L 76.1875 -26.78125 L 35.25 -26.78125 L 35.25 -16.421875 L 87.328125 -16.421875 Z M 87.328125 0 "/></g></g></g><g fill="#000000" fill-opacity="1"><g transform="translate(260.79695, 217.715405)"><g><path d="M 95.65625 0 L 67.4375 0 L 48.203125 -20.359375 L 28.90625 0 L 0.6875 0 L 35.25 -33.953125 L 0.6875 -66.328125 L 28.90625 -66.328125 L 48.203125 -47.328125 L 67.4375 -66.328125 L 95.65625 -66.328125 L 61.109375 -33.953125 Z M 95.65625 0 "/></g></g></g></svg>